<?xml version="1.0" standalone="no"?>
<!DOCTYPE svg PUBLIC "-//W3C//DTD SVG 20010904//EN"
 "http://www.w3.org/TR/2001/REC-SVG-20010904/DTD/svg10.dtd">
<svg version="1.0" xmlns="http://www.w3.org/2000/svg"
 width="1080.000000pt" height="1080.000000pt" viewBox="0 0 1080.000000 1080.000000"
 preserveAspectRatio="xMidYMid meet">
<metadata>
Created by potrace 1.11, written by Peter Selinger 2001-2013
</metadata>
<g transform="translate(0.000000,1080.000000) scale(0.100000,-0.100000)"
fill="#000000" stroke="none">
<path d="M6544 8272 c-187 -25 -336 -124 -411 -273 -18 -35 -67 -152 -108
-259 -88 -227 -104 -268 -116 -295 -5 -11 -50 -126 -100 -255 -50 -129 -126
-325 -169 -435 -43 -110 -128 -328 -189 -485 -61 -157 -115 -294 -120 -305 -5
-11 -23 -58 -41 -105 -18 -47 -36 -94 -41 -105 -5 -11 -37 -94 -73 -185 -35
-91 -81 -208 -101 -260 -62 -157 -480 -1228 -518 -1325 -20 -49 -56 -144 -82
-210 -25 -66 -50 -129 -55 -140 -5 -11 -41 -101 -79 -200 -108 -281 -181 -468
-191 -490 -5 -11 -20 -49 -33 -85 -24 -61 -199 -511 -252 -645 -13 -33 -42
-106 -64 -162 l-39 -103 237 0 c204 0 249 3 315 20 192 49 329 172 397 360 9
25 85 221 169 435 84 215 172 440 195 500 115 296 296 762 304 780 5 11 36 90
69 175 33 85 99 256 147 380 47 124 90 234 95 245 8 17 129 326 472 1210 28
72 84 216 125 320 98 252 179 459 366 942 86 221 172 441 191 490 19 48 64
162 100 253 35 91 67 176 71 190 l6 25 -229 0 c-126 0 -237 -1 -248 -3z"/>
<path d="M3375 6832 c-49 -26 -180 -94 -290 -151 -110 -57 -227 -118 -260
-136 -33 -18 -121 -64 -195 -102 -151 -78 -310 -161 -640 -333 -124 -65 -288
-150 -365 -190 -77 -40 -185 -96 -240 -125 -55 -29 -158 -83 -229 -120 -71
-36 -179 -93 -240 -124 -61 -32 -174 -91 -251 -131 -279 -145 -350 -183 -360
-192 -14 -13 -15 -396 -1 -407 6 -4 92 -50 191 -101 99 -51 207 -107 240 -125
33 -18 137 -72 230 -120 94 -48 206 -107 250 -130 44 -24 141 -74 215 -113 74
-38 160 -83 190 -99 30 -17 132 -69 225 -118 94 -48 206 -107 250 -130 44 -23
143 -75 220 -115 77 -40 185 -96 240 -125 150 -78 337 -176 455 -237 58 -30
172 -91 255 -134 82 -43 161 -84 176 -90 l25 -11 -1 376 c-1 207 -5 390 -9
406 -10 38 -61 115 -90 136 -24 18 -122 70 -441 234 -115 59 -268 138 -340
175 -71 37 -224 116 -340 175 -115 59 -262 135 -325 168 -141 73 -232 110
-375 152 -104 31 -108 33 -75 40 19 4 67 18 105 30 163 52 211 75 600 275 83
43 290 149 460 236 171 87 364 186 430 220 66 34 157 81 203 104 95 49 165
118 184 183 8 29 12 158 13 420 1 207 1 377 1 376 -1 0 -41 -21 -91 -47z"/>
<path d="M7315 6498 c1 -289 4 -383 15 -417 23 -73 85 -131 207 -193 59 -31
187 -96 283 -146 96 -49 263 -134 370 -189 747 -384 790 -405 880 -441 71 -28
178 -62 245 -77 17 -4 26 -9 20 -10 -235 -63 -307 -95 -790 -345 -82 -43 -240
-124 -350 -180 -110 -57 -261 -134 -335 -173 -74 -38 -201 -103 -282 -145
-160 -82 -204 -117 -239 -190 -23 -46 -23 -52 -24 -434 l-2 -387 31 15 c17 8
38 18 46 23 8 4 78 41 155 81 77 40 185 96 240 125 150 79 316 165 450 235 66
35 161 84 210 110 50 26 158 82 240 125 83 43 182 94 220 115 39 20 133 70
210 110 77 40 190 98 250 130 61 32 157 82 215 112 58 30 173 90 255 133 83
44 263 138 400 209 l251 131 0 201 0 200 -115 60 c-64 33 -188 98 -276 144
-88 45 -200 104 -250 130 -49 26 -153 80 -230 120 -77 40 -176 92 -220 115
-44 23 -156 82 -250 130 -93 48 -210 109 -260 135 -49 26 -148 78 -220 115
-71 37 -175 91 -230 120 -55 29 -172 90 -260 135 -88 45 -200 104 -250 130
-49 26 -148 78 -220 115 -71 37 -184 96 -251 131 -67 35 -126 64 -131 64 -6 0
-9 -138 -8 -372z"/>
</g>
</svg>
